<?xml version="1.0" encoding="utf-8"?>
<!-- Generator: Adobe Illustrator 28.3.0, SVG Export Plug-In . SVG Version: 6.00 Build 0)  -->
<svg version="1.1" id="Layer_1" xmlns="http://www.w3.org/2000/svg" xmlns:xlink="http://www.w3.org/1999/xlink" x="0px" y="0px"
	 viewBox="0 0 3465.9 710.8" style="enable-background:new 0 0 3465.9 710.8;" xml:space="preserve">
<style type="text/css">
	.st0{fill:#EC8028;}
</style>
<g>
	<g>
		<path class="st0" d="M517.7,278c-0.4-15.6-2.8-31.4-7.2-47.3c-4.3-16-11.2-30.3-20.3-43.1c-8-11.6-18.5-21.5-31.4-29.7
			s-26.5-13.2-40.4-15.2c-19.2-2.4-38.4-0.8-57.9,4.8c-19.4,5.6-37.2,13.4-53.5,23.3c-2-5.6-4.4-11-7.2-16.1
			c-2.8-5.2-6.6-9.4-11.3-12.6c-4-2.4-9.3-3.9-15.9-4.5c-6.6-0.6-13.4-0.8-20.6-0.6c-7.2,0.3-14.3,0.9-21.3,2.2
			c-6.9,1.2-12.4,2.6-16.5,4.1c-8.4,3.6-14.5,9.6-18.5,18c-2.3,4.8-4.1,9.8-5,14.9c-1,5.2-1.7,10.4-2.2,15.6
			c0,4.9-0.2,14.2-0.5,28.2c-0.4,13.9-0.9,29.1-1.5,45.3c-0.6,16.1-1.1,31.2-1.5,45.2c-0.4,14-0.5,23.3-0.5,28.2v49.4
			c0,16.1-0.2,32.6-0.6,49.4c0,4.4-0.3,12.3-0.9,23.9c-0.6,11.6-1.2,23.9-1.8,36.8c-0.5,13-1,25.4-1.2,37.2s0.1,19.6,0.9,23.6
			c0.8,5.2,3,9.5,6.6,12.6c2.8,2.4,6,4.2,9.6,5.4c3.5,1.2,7.1,2.2,10.7,3c12.8,3.6,26.4,4.9,40.8,3.6c14.4-1.2,27.5-4.8,39.5-10.7
			c2-0.8,3.8-1.7,5.4-2.7s2.8-2.3,3.6-4c1.2-1.5,2-3.1,2.3-4.5c0.5-1.3,0.8-2.9,1.3-4.5c0.4-3.5,0.5-10.5,0.5-20.9
			s-0.1-21.3-0.3-32.7c-0.2-11.4-0.5-22.2-0.9-32.7c-0.4-10.4-0.6-17.4-0.6-21c11.6,6.8,24.3,11.6,38.1,14.4
			c13.8,2.8,27.5,3.6,41,2.4c15.6-1.3,31-4.6,46.1-10.2c15.2-5.7,28.5-13.6,40.1-24c9.2-7.2,16.8-15.8,23-25.7
			c6.2-10,11.3-20.3,15.3-31.1c5.9-15.1,10.2-31,12.6-47.6C517.7,311.4,518.5,294.8,517.7,278L517.7,278z M425.9,226.6
			c9.7-4.1,20.4,0.9,22.7,11.3c1.4,6.4,1.2,12.9-0.4,19.1c-2.6,11.1-9.4,21.3-18.5,28c-5.1,3.8-12.6,6.9-19,4.7
			c-8-2.8-11.3-11.8-11.4-19.7C399.2,252.4,409.2,233.6,425.9,226.6L425.9,226.6z M349.5,229.8c1.4-4.2,3.3-8.3,5.9-12
			c5.4-7.7,15.5-14.2,24.8-8.9c7.7,4.3,11.1,15.2,11.8,23.5c0.8,8.5-0.5,17.1-3.8,24.9c-3,7-8,14.8-15.3,17.7c-6,2.4-12.5,0.5-17-4
			c-3.3-3.3-5.5-7.8-6.8-12.4c-0.9-2.7-1.4-5.6-1.7-8.5C346.6,243.5,347.3,236.4,349.5,229.8L349.5,229.8z M302.7,293.4
			c-5.8-7.9-8.1-18.2-7.2-27.8c0.2-2.1,0.5-4.2,1.1-6.4c1.7-6.6,5.1-13.1,11.2-16.1c13-6.8,26.6,7.7,30.2,19.1
			c3,9.2,2.3,19.4-1.6,28.1C329.3,305.5,312.5,307.2,302.7,293.4L302.7,293.4z M413.9,391.8c-23,21.2-58.6,11.5-80.6-6
			c-9.5-7.6-16.8-18.5-18.7-30.7c-2.1-13.7,4.8-26.3,14.7-35.3c8.6-7.8,19.7-14,30.3-18.6c6.8-3.1,15-4,22.4-1.7
			c8.2,2.6,13.8,9.5,19.3,15.8c6.2,7.3,12.8,16,17.5,25.4c3.9,7.7,6.6,15.9,6.8,24.1C425.9,375.1,421.5,384.9,413.9,391.8
			L413.9,391.8z M472.2,313.2c-1.8,6.4-5.1,12.1-10.1,16.6c-6.5,5.9-15.8,10.8-24.8,9.5c-8.2-1.2-14.7-8.3-15.1-16.5
			c-0.3-3.8,0.3-7.6,1.4-11.2c4-13.7,16.1-25.3,30.3-26.5c7.6-0.7,15.4,2.6,18.7,9.8C475.4,301.2,474,307,472.2,313.2L472.2,313.2z"
			/>
		<path class="st0" d="M765.6,465.4c8.4-0.7,16.7-2.7,24.8-5.7s15.7-7.3,22.5-12.9c8-6.4,14.6-14,19.7-23c5.2-9,9.5-18.3,12.6-27.8
			c4.8-15.7,7.2-31.7,7.2-48.2s-2.2-32.7-6.6-48.2c-2-7.2-5.3-14-9.9-20.3c-4.6-6.4-9.9-11.8-15.8-16.2c-8-5.6-16.8-9.5-26.4-12
			c-9.6-2.3-19.2-4.1-28.8-5.4c-17.5-2.3-35.1-3.6-52.7-3.6s-35.2,1.4-52.7,4.2c-8.4,1.2-16.7,2.8-25.1,4.8c-8.4,2-16.4,5-23.9,9
			c-8,4-15.4,9-22.2,14.9c-6.8,6-12.8,12.6-17.9,19.8c-7.2,10-12.9,20.8-17.1,32.3c-4.1,11.6-7.7,23.4-10.4,35.4
			c-4,17.5-6.3,35.3-6.9,53.3c-0.5,18,0.7,35.9,3.9,53.9c2.1,11.6,5,23.2,9,35c4,11.8,9.4,22.5,16.2,32c8.7,12,20.2,21.6,34.1,28.8
			c10.4,5.6,21.6,9.8,33.6,12.9c12,3,23.9,4.9,35.9,5.7c19.5,1.6,39.2,1.3,58.7-0.9c19.6-2.2,39.2-4.5,58.7-6.9
			c5.6-0.8,11.1-1.5,16.5-2.3c5.4-0.8,10.5-2.6,15.3-5.4c4-2.4,7.2-5.6,9.6-9.6c2.3-4,4.3-8.1,5.9-12.5c2.4-6.8,3.7-13.8,3.9-21
			c0.3-7.2-0.5-14.2-2.1-21c-0.8-4.8-3.1-8.3-6.8-10.4c-3.9-2.2-8.4-3.8-13.5-4.5c-5.2-0.8-10.6-1.2-16.2-0.9
			c-5.6,0.2-10.8,0.5-15.6,0.9c-4.8,0.4-12,0.9-21.5,1.4c-9.6,0.6-19.5,0.9-29.7,0.9s-19.9-0.4-29.1-1.2c-9.2-0.8-15.8-2.4-19.7-4.8
			c-4-2.4-7.2-6-9.6-10.8c-2.3-4.8-3.6-9.6-3.6-14.4c16,1.2,32,2.6,48,4.2C733.7,466.5,749.7,466.7,765.6,465.4L765.6,465.4z
			 M694.7,402c-10.6-1.6-21.1-3.1-31.5-4.8c0-11.2,3.4-21.7,10.2-31.5c6.8-9.7,14.8-18,24-24.8c5.9-4.4,12.9-7.6,20.6-9.5
			c7.8-2,15.5-2.4,23-1.3c7.7,1.6,14.3,4.9,20.1,9.6c5.8,4.8,10,10.2,12.6,16.2c2.6,5.9,3.3,12.2,2.1,18.8
			c-1.2,6.6-4.8,12.3-10.8,17.1c-5.1,4.4-11.2,7.3-18.2,8.6c-7,1.4-14,2.3-20.7,2.7C715.8,403.9,705.2,403.6,694.7,402L694.7,402z"
			/>
		<path class="st0" d="M1176.2,496.9c-1.4-6.2-4.1-11.7-8.1-16.5c-4.1-4.9-9.4-8.2-16.2-10.2c-7.2-2.1-14.6-2.1-22.1,0
			c-7.6,2-15.2,3.6-22.8,4.8c-5.6,0.8-11.3,0.9-17.4,0.3c-5.9-0.5-11.2-2.7-15.6-6.3c-5.6-4.3-9.8-11.2-12.6-20.3
			c-2.8-9.2-4.6-19.2-5.4-30c-0.7-10.7-1-21.4-0.5-32c0.4-10.5,1-19.4,1.8-26.6c11.2,0.8,22.4,1.2,33.8,0.9
			c11.3-0.2,22.4-1.9,33.2-5c8.4-2.1,16.3-6.4,23.7-13.2c7.4-6.8,12.1-14.3,14-22.8c1.3-5.9,1.1-12.3-0.3-19.2
			c-1.4-6.8-4.3-12.1-8.7-16.1c-4-3.6-9.8-6.3-17.6-8.1c-7.7-1.8-15.9-3.2-24.6-4.2c-8.6-1-17-1.4-25.4-1.2
			c-8.5,0.2-15.2,0.5-20.4,0.9c0-3.6,0.4-9.8,0.9-18.5c0.6-8.8,1.1-18.2,1.5-28.2c0.4-10,0.6-19.4,0.6-28.2s-0.4-14.9-1.3-18.5
			c-0.8-4.8-2.6-9.4-5.4-14s-6.4-8.3-10.7-11.2c-7.2-5.1-15.3-8.5-24.3-9.8c-9-1.4-18.1-2.3-27.3-2.7c-8,0-16.1,0.6-24.6,2.1
			c-8.4,1.4-15.3,4.9-20.9,10.4c-4.4,4.4-8,11.5-10.8,21.3c-2.8,9.7-5,20.2-6.6,31.4c-1.6,11.2-2.9,22.1-3.6,32.9
			c-0.8,10.8-1.4,19.2-1.8,25.2c-6.4-0.5-12.7-0.6-18.9-0.6s-12.2,0.4-18.3,1.2c-6.8,1.2-12.2,3.8-16.2,7.8c-4,4-6.9,8.8-8.9,14.7
			c-2.1,5.8-3.1,12.1-3.1,18.8s0.8,13.4,2.4,19.8c0.8,3.6,2,7.2,3.6,10.8c1.6,3.6,3.8,6.6,6.6,9c6.8,5.6,14.7,9.1,23.7,10.4
			c9,1.4,17.6,1.9,26,1.5c0.5,19.5,1.4,39.1,3.1,58.7c1.5,19.5,5.1,38.9,10.7,58c4,12.8,9.2,25.2,15.6,37.2s14.2,22.8,23.4,32.3
			c12.3,12.8,26.7,22,43.1,27.5c18,6,37.2,8.3,57.5,6.9c20.3-1.4,39.2-6.1,56.2-14.1c6.8-3.2,13.2-7,19.2-11.6
			c6-4.6,10.6-10.1,13.8-16.5c3.2-6,5.3-12.5,6.3-19.5C1177.7,509.7,1177.5,503.1,1176.2,496.9L1176.2,496.9z"/>
	</g>
	<g>
		<g>
			<path class="st0" d="M1688.2,353.6c-2-4.8-4.6-9.4-7.7-13.8c-3.2-4.4-7-7.6-11.4-9.5c-3.2-1.3-8.4-2.4-15.6-3.6
				c-7.1-1.3-14.8-2.2-23-2.7c-8.2-0.6-15.9-1.1-23.3-1.5c-7.4-0.4-12.9-0.5-16.5-0.5c-3.2,0-7.8,0.1-13.8,0.3
				c-6,0.2-12.3,0.5-18.9,0.9c-6.6,0.4-12.8,1.1-18.5,2.1c-5.8,1-9.9,2.3-12.3,3.9c-5.6,3.2-9.5,8.4-12,15.6
				c-2.3,7.2-3.6,14.2-3.6,21c-0.4,5.6,0,11.4,1.3,17.4c1.2,6,3.8,11.2,7.7,15.6c3.2,2.8,6.8,4.5,10.8,5.1c4,0.5,8,1.1,12,1.4
				c9.6,0.5,19.2,0.5,28.7,0c9.6-0.4,19.2-1,28.8-1.7c0.4,2.8,0.4,6.9,0.3,12.5s-0.4,11.5-0.9,17.7c-0.4,6.1-1,12.1-1.8,17.6
				c-0.8,5.6-1.8,9.8-3,12.6c-2.4,5.6-6.2,10-11.3,13.1c-5.2,3.6-11.7,6.1-19.5,7.5c-7.7,1.4-15.8,2-24.2,1.8
				c-8.4-0.2-16.7-1.2-24.8-3s-14.9-4.3-20.1-7.5c-9.2-4.9-17.4-11.6-24.6-20.4c-7.2-8.7-12.4-18.4-15.6-28.7
				c-6.8-21.6-9.1-44.1-6.9-67.7c2.2-23.6,7.9-45.5,17.1-65.9c4-9.2,9-17.8,14.9-26c6-8.2,13.2-14.9,21.6-20.1
				c8.7-5.2,18.4-8.7,28.7-10.5c10.4-1.8,20.6-1.9,30.6-0.3c10.7,1.6,21.4,4.4,32,8.4c10.5,4,21.4,6.2,32.6,6.6
				c5.2,0.4,10.2-0.4,15-2.7c4.8-2.2,8.7-5.2,12-9.3c5.6-6.8,10.2-14.5,13.8-23c3.6-8.6,5.4-17.3,5.4-26c0.4-6.4-0.5-12.6-2.7-18.6
				c-2.2-5.9-5.3-11.2-9.3-15.6c-6-6.4-13.1-11.4-21.3-15.2c-8.2-3.9-16.5-6.8-24.8-8.7c-12.8-3.1-25.9-5.3-39.5-6.3
				c-13.6-1-26.9-0.9-40.1,0.4c-11.5,0.7-22.9,2.4-34.1,5s-22,6.5-32.3,11.7c-17.2,8.7-32.8,20.3-46.7,34.7
				c-14,14.4-25.6,30.1-34.7,47.3c-14.8,28.4-24.8,58.9-30.2,91.6c-5.4,32.7-6.1,65.1-2.2,97c3.2,26.7,9.8,51.8,19.8,75.4
				c5.6,12.4,12.5,24.2,20.6,35.4c8.2,11.2,17.7,21,28.5,29.3c9.2,7.2,19.4,13,30.8,17.6c11.4,4.6,22.9,7.9,34.5,9.9
				c13.9,2.8,27.9,4.2,41.9,4.5c13.9,0.2,27.9-0.7,41.8-2.7c12.4-1.6,24.8-3.7,37.2-6.3c12.4-2.6,23.8-7.3,34.1-14
				c7.2-4.4,13.5-9.9,18.9-16.5c5.4-6.7,9.6-13.7,12.9-21.3c7.6-16.4,12.1-33.6,13.5-51.8c1.3-18.2,2.9-36.3,4.5-54.3
				c0.7-10.7,1.1-21.7,0.9-32.9C1693.7,374.8,1691.8,364.1,1688.2,353.6L1688.2,353.6z"/>
			<path class="st0" d="M2039.7,275.2c-2-6.8-4.9-12.4-8.9-16.8c-3.6-4.4-8.7-7.8-15.3-10.4c-6.6-2.6-13.7-4.3-21.2-5.1
				c-7.7-0.8-15.2-0.9-22.8-0.3c-7.6,0.5-14.2,1.7-19.8,3.2c-4,0.8-7.7,2.2-11.3,4.2s-6.4,4.6-8.4,7.8c-3.2,4.3-5.4,9.4-6.7,14.9
				c-1.2,5.6-2,11.2-2.3,16.7c-1.2,16.8-0.4,33.7,2.3,50.6c2.9,17,4.1,34.1,3.6,51.2c0,8-0.4,16-1.4,24c-1,7.9-3.3,15.6-6.9,22.7
				c-4,8-10.8,14.1-20.3,18.3c-9.5,4.2-18.8,5.1-27.5,2.7c-6.4-1.5-11.6-5.5-15.6-11.6c-4-6.2-7-13.4-9-21.6s-3.4-16.6-4.1-25.1
				c-0.8-8.6-1.3-16.3-1.3-23.1c-0.4-14.3,0.4-28.7,2.4-43.1c2-14.3,3.6-28.7,4.8-43.1c0.4-4.8,0.3-9.6-0.3-14.7
				c-0.6-5-2.3-9.5-5.1-13.5c-2.3-4-5.6-7-9.5-9.3c-4.1-2.2-8.2-3.9-12.6-5c-7.6-2.4-15.2-3.7-22.8-4c-7.6-0.2-15.2-0.1-22.8,0.4
				c-12.8,0.8-23.3,5.8-31.7,14.9c-4.9,5.6-8.6,11.7-11.4,18.3c-2.8,6.6-5.2,13.3-7.2,20.1c-3.2,12.4-5.1,24.8-5.9,37.2
				c-0.8,12.3-1.4,24.9-1.8,37.7c-0.8,21.5,0.4,43.2,3.9,65s10.1,42.2,20.1,61.4c5.9,11.6,13.5,22.1,22.4,31.8
				c9,9.5,19.1,17.7,30.3,24.5c7.9,4.4,16.2,8,24.8,10.8c8.6,2.8,17.3,5,26,6.6c13.9,2.4,28.3,3.4,42.8,3.1
				c14.6-0.5,28.6-2.6,42.2-6.7c8-2.3,15.8-5.5,23.7-9.3c7.7-3.8,14.8-8.5,21.2-14c8.8-7.6,16.7-15.8,23.9-24.6
				c7.2-8.7,13.4-18.4,18.6-28.7c7.9-14.8,14-30.5,18.3-47.1c4.1-16.6,6.8-33.2,8-50c2.1-20.4,3.3-40.9,4-61.4
				C2049.6,314.2,2046.6,294.3,2039.7,275.2L2039.7,275.2z"/>
			<path class="st0" d="M2220,170.4c-2.8-8-7.3-14.8-13.4-20.3c-6.2-5.6-13.4-9.9-21.6-12.9c-8.2-3.1-16.7-4.7-25.7-5.1
				c-9-0.4-17.6,0.4-26,2.4c-14.9,3.6-26,11.8-33.6,24.5c-4.8,8-8,16.9-9.6,26.7c-1.5,9.7-1,19.3,1.8,28.4c2.1,5.9,5.9,11,11.4,14.9
				c5.6,4,11.2,7.4,16.7,10.2c6.8,3.6,14.3,6.1,22.5,7.5c8.2,1.4,16.2,1.7,24.2,0.9c6.8-0.4,13.6-1.5,20.3-3.6
				c6.8-2,13.1-5.1,18.6-9.5c5.6-4,10-9.5,13.1-16.7c3.2-7.2,4.9-15,5.1-23.4C2224.1,185.9,2222.8,177.9,2220,170.4L2220,170.4z
				 M2212.2,339.8c-0.4-5.6-1-11.1-1.8-16.5s-2.2-10.4-4.2-15.3c-2-3.1-4.2-6-6.8-8.6c-2.6-2.6-5.5-4.9-8.7-6.9
				c-5.6-2.3-11.2-4-17-4.8c-5.9-0.8-11.5-1.5-17.1-2.3c-13.9-0.5-29,0.5-44.9,3c-4,0.8-7.9,2-11.7,3.6s-7.1,4-9.9,7.2
				c-3.1,3.1-5.3,7.2-6.6,12c-1.2,4.8-2,9.4-2.3,13.8c-0.4,4-0.8,10.4-1.3,19.2c-0.4,8.7-0.8,18.8-1.2,30.2
				c-0.4,11.3-0.7,23.3-0.9,35.9s-0.5,24.6-0.9,35.9c-0.4,11.4-0.6,21.6-0.6,30.6v18.8c0,8,0.3,16.2,0.6,24.6
				c0.4,8.4,1.4,16.6,3,24.6c2,10,6.2,18.2,12.6,24.6c4,4,9.6,7.1,16.7,9.3c7.2,2.2,14.8,3.8,22.8,4.8s15.8,1.2,23.4,0.6
				c7.6-0.6,14.1-1.9,19.7-3.9c3.2-0.8,6.2-2.3,9-4.5c2.8-2.2,5.2-4.8,7.2-7.6c5.6-7.9,9-16.7,10.2-26.3c1.2-9.6,2.2-19,3-28.2
				c0-2.4,0.3-7.6,0.6-15.6c0.4-8,0.8-16.5,1.2-25.5c0.4-9,0.7-17.5,0.9-25.5c0.3-7.9,0.4-13.1,0.4-15.6c0.8-15.1,2-30.4,3.6-45.8
				C2212.6,370.3,2213.1,355.1,2212.2,339.8L2212.2,339.8z"/>
			<path class="st0" d="M2883,463.2c8.4-0.8,16.6-2.7,24.8-5.7c8.2-3.1,15.7-7.3,22.4-12.9c8-6.4,14.6-14.1,19.8-23.1
				c5.2-8.9,9.4-18.2,12.6-27.8c4.8-15.6,7.1-31.6,7.1-48.2s-2.2-32.6-6.6-48.1c-2-7.2-5.3-14-9.8-20.4c-4.7-6.3-9.9-11.7-15.9-16.1
				c-8-5.6-16.7-9.6-26.4-12c-9.5-2.4-19.2-4.2-28.7-5.4c-17.6-2.4-35.1-3.6-52.7-3.6s-35.1,1.4-52.6,4.1
				c-8.4,1.3-16.8,2.9-25.2,4.9c-8.4,2-16.4,4.9-23.9,9c-8,4-15.4,8.9-22.1,14.9c-6.8,5.9-12.8,12.6-18,19.7
				c-7.2,10-12.9,20.8-17,32.4c-4.2,11.5-7.7,23.3-10.5,35.3c-4,17.6-6.3,35.4-6.8,53.4c-0.6,17.9,0.6,35.9,3.9,53.9
				c2,11.5,4.9,23.2,9,35c4,11.8,9.4,22.4,16.1,32c8.8,12,20.2,21.5,34.2,28.7c10.4,5.6,21.5,9.9,33.5,12.9c12,3.1,23.9,5,36,5.8
				c19.5,1.5,39.1,1.3,58.7-1c19.5-2.2,39.1-4.4,58.7-6.8c5.6-0.8,11.1-1.6,16.5-2.4s10.4-2.5,15.3-5.4c4-2.3,7.1-5.6,9.5-9.5
				c2.4-4,4.4-8.2,6-12.6c2.3-6.8,3.7-13.8,3.9-21c0.2-7.1-0.5-14.1-2.1-21c-0.8-4.8-3.1-8.3-6.9-10.4s-8.3-3.7-13.5-4.5
				c-5.1-0.8-10.5-1.1-16.1-0.9c-5.7,0.2-10.8,0.5-15.6,0.9c-4.9,0.5-12.1,0.9-21.6,1.5c-9.5,0.5-19.4,0.9-29.6,0.9
				s-19.9-0.5-29.1-1.3c-9.2-0.7-15.8-2.3-19.8-4.8c-4-2.3-7.2-5.9-9.5-10.8c-2.4-4.8-3.6-9.5-3.6-14.3c15.9,1.2,31.9,2.6,47.9,4.1
				C2851,464.2,2867,464.4,2883,463.2L2883,463.2z M2812,399.8c-10.6-1.6-21.1-3.2-31.4-4.9c0-11.2,3.3-21.6,10.2-31.4
				c6.8-9.8,14.8-18.1,23.9-24.8c6-4.4,12.9-7.6,20.7-9.6c7.7-2,15.4-2.3,23-1.2c7.6,1.6,14.2,4.8,20.1,9.5
				c5.8,4.9,10,10.3,12.5,16.2c2.6,6,3.3,12.3,2.2,18.9c-1.3,6.6-4.9,12.2-10.8,17.1c-5.2,4.3-11.2,7.2-18.3,8.6s-13.9,2.2-20.7,2.7
				C2833,401.8,2822.6,401.3,2812,399.8L2812,399.8z"/>
			<path class="st0" d="M3284.2,275.8c-2-7.6-5.4-14.8-10.2-21.5c-2-3.2-4.6-5.9-7.8-8.1c-3.1-2.2-6.6-4.3-10.2-6.3
				c-12.8-6-26.2-10-40.4-12c-14.1-2-28.3-3.4-42.2-4.2c-16-0.8-31.9-0.8-47.9,0c-16,0.8-31.6,2.8-46.7,6c-10.4,2-20.6,5.1-30.6,9.5
				c-10,4.4-19,10.2-26.9,17.4c-16,14.4-25.6,32.1-28.8,53.3c-2,10.8-1.8,21.9,0.6,33.3c2.4,11.3,6.4,21.9,12,31.4
				c5.6,9.6,12.7,18.2,21.2,25.7c8.6,7.6,17.9,13.8,27.9,18.5c12.8,6,25.6,11.3,38.3,15.9s25.5,9.6,38.3,15.3c2,0.7,4.9,2.2,8.9,4.1
				c4.1,2,6.4,4,7.2,6c0.4,0.4,0.6,1,0.6,1.8c-2,2.3-5.5,3.8-10.5,4.1c-4.9,0.5-8.8,0.6-11.6,0.6c-14,0.8-28.2,0.6-42.6-0.6
				c-14.4-1.2-28.5-1.5-42.5-1.2c-4.9,0.4-9.7,0.8-14.7,1.2c-5,0.5-9.3,2.2-12.9,5.4c-8.8,7.2-14.9,15.7-18,25.5
				c-3.2,9.8-3.9,19.4-2.1,29.1c1.8,9.5,5.9,18.3,12.5,26c6.7,7.8,15.3,13.3,26.1,16.5c8,2,15.9,3.5,23.9,4.5s15.9,1.9,23.9,2.7
				c10.8,0.8,21.6,1.3,32.4,1.5c10.7,0.2,21.5,0.3,32.3,0.3c7.6,0,15.1-0.1,22.8-0.3c7.6-0.3,15.1-0.9,22.8-2.2
				c9.9-1.5,19.9-5.1,29.9-10.7c10-5.7,19-12.6,27-21c8-8.5,14.5-17.6,19.4-27.5c4.9-10,7.9-20.2,8.7-30.6c0.7-14.8-1.7-29.4-7.6-44
				c-5.8-14.6-13.4-27.3-23-38c-3.6-4-7.6-7.6-12.2-10.8c-4.6-3.2-9.1-6.2-13.5-9c-15.9-9.2-32.3-17.1-49.1-23.7
				c-16.7-6.6-33.3-13.9-49.7-21.9c2.4,0,7.6,0.4,15.6,0.9c8,0.6,16.6,1.2,25.7,1.8c9.2,0.6,17.8,1.4,25.7,2.1
				c8,0.8,13.2,1.3,15.6,1.3c10.4,0.8,20.9,0.9,31.5,0.3c10.5-0.6,20.4-3.7,29.6-9.3c6.8-4,12.1-9.2,15.8-15.6
				c3.9-6.4,6.1-13.4,6.9-21C3286.8,291,3286.2,283.3,3284.2,275.8L3284.2,275.8z"/>
		</g>
		<path class="st0" d="M2624.2,156.6c-3.6-7.6-9.5-13.5-18-17.6c-8.4-4.2-16.6-7.1-24.5-8.7c-4.9-0.8-10.8-1.3-18-1.5
			c-7.2-0.2-14.6,0-22.1,0.6c-7.6,0.6-14.7,1.8-21.3,3.6c-6.6,1.8-11.6,4.3-15.2,7.5c-3.2,2.8-5.6,6-7.2,9.6
			c-1.6,3.6-2.8,7.4-3.6,11.3c-1.6,6-2.7,12.1-3.3,18.3c-0.5,6.2-1.3,12.3-2.1,18.3c-1.2,12.8-2.1,25.6-2.7,38.6
			c-0.5,13-1.3,25.9-2.1,38.7c-12-4-24.2-7.3-36.5-9.9c-12.4-2.6-24.9-4.3-37.7-5.1c-14.4-0.8-28.8,0.1-43.1,2.7
			c-14.4,2.6-28,7.3-40.8,14c-10.4,5.7-19.5,12.6-27.5,21c-8,8.5-15.2,17.6-21.5,27.5c-12.9,20.4-21.9,42.8-27.3,67.4
			s-6.5,48.8-3.3,72.8c1.2,9.2,3.1,18.3,5.7,27.2c2.6,9,6.1,17.5,10.5,25.5c3.1,5.2,6.8,10.1,10.8,14.7c4,4.6,8.4,8.5,13.1,11.7
			c10.4,7.6,22.1,13.1,35.4,16.7c13.1,3.6,26.1,5.4,38.9,5.4c21.6,0,43-3.2,64.4-9.9c21.4-6.6,41.9-14.8,61.5-24.8
			c1.2,6.8,3.2,13.4,6.2,19.8c3.1,6.4,7.3,11.8,12.9,16.1c5.2,4,11.2,6.7,17.7,7.8c6.6,1.2,13.2,1.8,20.1,1.8c5.9,0,12-0.2,17.9-0.6
			c6-0.4,12-1.3,18-3c6-1.2,11.2-4,15.6-8.4c2.8-2.4,4.9-5.2,6.6-8.4c1.6-3.2,2.8-6.4,3.6-9.6c1.2-5.1,2-10.3,2.4-15.6
			c0.4-5.1,0.8-10.3,1.2-15.6c0.8-23.9,1.1-48,0.9-72.2c-0.2-24.1,0.3-48.1,1.5-72.2c1.2-27.9,3.3-55.7,6.6-83.5
			c3.1-27.7,6.4-55.6,9.5-83.5c0.8-8,1.4-16.3,1.8-24.8C2629.5,171.6,2627.8,163.8,2624.2,156.6L2624.2,156.6z M2378,340.6
			c1.4-8.2,5.3-18.7,13.2-22.6c9.5-4.6,19.1,2.5,23.9,10.5c2.3,3.8,4,7.9,5.1,12.1c1.6,6.7,1.9,13.7,0.8,20.4
			c-0.5,2.8-1.3,5.6-2.2,8.2c-1.7,4.5-4.1,8.7-7.6,11.9c-4.7,4.1-11.2,5.6-17,2.8c-7.1-3.3-11.6-11.4-14-18.5
			C2377.4,357.5,2376.7,348.8,2378,340.6z M2321.7,342.4c2.9-10.3,13.9-14.4,23.2-9.7c16,7.9,24.8,27.2,23.4,44.6
			c-0.6,7.8-4.4,16.5-12.6,18.7c-6.4,1.8-13.7-1.8-18.4-5.9c-8.6-7.3-14.5-17.8-16.5-28.9C2319.7,355,2320,348.5,2321.7,342.4
			L2321.7,342.4z M2302.2,432.3c-4.6-4.9-7.5-10.6-8.9-17.1c-1.4-6.3-2.3-12.1,0.9-18.2c3.8-6.9,11.6-9.7,19.2-8.5
			c13.9,2.2,25.2,14.5,28.3,28.3c0.8,3.7,1.1,7.5,0.6,11.2c-1,8.1-7.9,14.8-16,15.3C2317.2,444,2308.3,438.6,2302.2,432.3
			L2302.2,432.3z M2446.5,466.9c-2.6,11.8-10.6,22.2-20.4,29.1c-22.9,15.9-58.8,23.2-80.2,0.8c-6.9-7.4-10.7-17.4-9.7-27.5
			c0.8-8.1,4-16,8.3-23.4c5.3-9,12.3-17.2,19-23.9c5.8-5.9,11.7-12.4,20.1-14.5c7.4-1.8,15.5-0.3,22.1,3.1
			c10.2,5.3,20.7,12.1,28.7,20.4C2443.5,440.6,2449.5,453.5,2446.5,466.9L2446.5,466.9z M2462.4,406.7c-10.6,13-27.2,10.2-33.1-5.4
			c-3.3-8.8-3.3-18.9,0.2-27.8c4.3-11,18.9-24.5,31.2-16.9c5.8,3.4,8.7,10.1,9.9,16.7c0.4,2.2,0.6,4.3,0.7,6.3
			C2471.6,389.2,2468.6,399.2,2462.4,406.7L2462.4,406.7z"/>
	</g>
</g>
</svg>
